# xmcd
#
# Track frame offsets:
#	150
#	16679
#	31533
#	41776
#	55449
#	72490
#	82043
#	93418
#	108638
#	123969
#	136472
#	150424
#	164289
#	174309
#	187749
#	200837
#	213918
#	227243
#	241387
#	253288
#	264690
#	276733
#	290487
#	302349
#	315827
#	325394
#
# Disc length: 4548 seconds
#
# Revision: 0
# Processed by: cddbd v1.5.2PL0 Copyright (c) Steve Scherf et al.
# Submitted via: audiograbber 1.83.01
#
DISCID=7611c21a
DTITLE=Various Artist - Country Classics
DYEAR=1900
DGENRE=
TTITLE0=Alan Jacksonhn@gmail - Here In The Real World
TTITLE1=Marty Robbins - Donn't Worry About Me
TTITLE2=Flatt and Scruggs - Don't Let Your Deal Go Down
TTITLE3=Shenandoah - The Church On Cumberland Rd
TTITLE4=George Sytrait - I've Come To Expect It FFrom You
TTITLE5=Slim Whitman - Love Letters In The Sand
TTITLE6=Bill Anderson - That's What It's Like To Be Lonesome
TTITLE7=Charlie Pride - I Wrote The Songs Thsat Broke Her Heart
TTITLE8=Ed Bruce - You Turn Me On Like A Radio
TTITLE9=Patsy Cline - Crazy
TTITLE10=Razzy Baily - What Time Do You Have To Be Back To Heaven
TTITLE11=Nat Stucky - She Wakes Me With A Kiss
TTITLE12=Connie Smith - Cincinnati Ohio
TTITLE13=Sonny James - It;s The Little Things
TTITLE14=David Houston - My Elusive Dreams
TTITLE15=Billy Jo Spears - 57 Chevrolet
TTITLE16=Billy Crash Craddock - I Love Blues and Boggie Woggie
TTITLE17=Merle Haggard - Branded Man
TTITLE18=George Jones - A Picture Of Me Wthout You
TTITLE19=Ferlin Husky - My Reason For Living
TTITLE20=Jean Shepherd - Heart, We Did All That We Could
TTITLE21=Dottsy - I'll Be Your San Antone Rose
TTITLE22=Stonewall Jackson - Help Stamp Out Loneiness
TTITLE23=Ray Price - Heartaches By The Numbers
TTITLE24=Lester Frizzell - If You've Got The Money
TTITLE25=Keith Whitley - Til A Tear Becomes A Rose
EXTD=
EXTT0=
EXTT1=
EXTT2=
EXTT3=
EXTT4=
EXTT5=
EXTT6=
EXTT7=
EXTT8=
EXTT9=
EXTT10=
EXTT11=
EXTT12=
EXTT13=
EXTT14=
EXTT15=
EXTT16=
EXTT17=
EXTT18=
EXTT19=
EXTT20=
EXTT21=
EXTT22=
EXTT23=
EXTT24=
EXTT25=
PLAYORDER=
